<svg id="Layer_1" data-name="Layer 1" xmlns="http://www.w3.org/2000/svg" viewBox="0 0 927 923.15"><defs><style>.cls-1{fill:#77133f;}.cls-2{fill:#8e4361;}.cls-3{fill:#b06f8e;}</style></defs><title>rkkhok</title><path class="cls-1" d="M323.7,665.61H46.52A9.43,9.43,0,0,0,37.09,675V952.21a9.43,9.43,0,0,0,9.43,9.43H323.7a9.43,9.43,0,0,0,9.42-9.43V675A9.43,9.43,0,0,0,323.7,665.61ZM202.11,911.41l-24.57-45.72H157.82v45.72H91V717.08c38-1.42,67.16-2,86.88-2,56.86,0,87.73,25.43,87.73,73.16,0,26.28-8.58,46-25.72,59.44l39.43,63.72Z" transform="translate(-37.09 -38.49)"/><path class="cls-1" d="M171.83,769.67h-14v43.44h14c17.14,0,25.71-7.43,25.71-22.58C197.54,776.53,189,769.67,171.83,769.67Z" transform="translate(-37.09 -38.49)"/><path class="cls-1" d="M639.18,665.61H362a9.43,9.43,0,0,0-9.43,9.43V952.21a9.43,9.43,0,0,0,9.43,9.43H639.18a9.43,9.43,0,0,0,9.43-9.43V675A9.43,9.43,0,0,0,639.18,665.61ZM521,910.42l-36-56.58H465.88v56.58H399V716.09h66.88V789h.57l48.86-72.87h78L529.89,807l72.3,103.46Z" transform="translate(-37.09 -38.49)"/><path class="cls-1" d="M954.67,665.61H677.49a9.43,9.43,0,0,0-9.42,9.43V952.21a9.43,9.43,0,0,0,9.42,9.43H954.67a9.43,9.43,0,0,0,9.43-9.43V675A9.43,9.43,0,0,0,954.67,665.61ZM836.52,910.42l-36-56.58H781.36v56.58H714.49V716.09h66.87V789h.57l48.87-72.87h78L845.38,807l72.29,103.46Z" transform="translate(-37.09 -38.49)"/><path class="cls-2" d="M185.11,461.78c-11.15,0-20.29,3.71-27.14,11.43-6.58,7.71-10,17.71-10,30.29s3.43,22.57,10,30.29c6.85,7.72,16,11.43,27.14,11.43s20.29-3.71,26.86-11.43c6.86-7.72,10.29-17.72,10.29-30.29s-3.43-22.58-10.29-30.29C205.4,465.49,196.25,461.78,185.11,461.78Z" transform="translate(-37.09 -38.49)"/><path class="cls-2" d="M323.7,352.05H46.52a9.43,9.43,0,0,0-9.43,9.43V638.65a9.43,9.43,0,0,0,9.43,9.43H323.7a9.43,9.43,0,0,0,9.42-9.43V361.48A9.43,9.43,0,0,0,323.7,352.05ZM261.41,577.23c-19.14,18.57-44.57,27.71-76.3,27.71s-57.15-9.14-76.3-27.71S79.94,534.08,79.94,503.5s9.72-54.87,28.87-73.45,44.58-28,76.3-28,57.16,9.43,76.3,28,28.86,42.88,28.86,73.45S280.56,558.65,261.41,577.23Z" transform="translate(-37.09 -38.49)"/><path class="cls-1" d="M954.67,38.49H677.49a9.43,9.43,0,0,0-9.42,9.43V325.09a9.43,9.43,0,0,0,9.42,9.43H954.67a9.43,9.43,0,0,0,9.43-9.43V47.92A9.43,9.43,0,0,0,954.67,38.49ZM910.53,283.67H843.68V218.52H788.51v65.15H721.63V89.34h66.88v71.45h55.17V89.34h66.85Z" transform="translate(-37.09 -38.49)"/><path class="cls-2" d="M639.18,352.05H362a9.43,9.43,0,0,0-9.43,9.43V638.65a9.43,9.43,0,0,0,9.43,9.43H639.18a9.43,9.43,0,0,0,9.43-9.43V361.48A9.43,9.43,0,0,0,639.18,352.05Zm-69.3,108.58h-88V477.5h74v51.43h-74v17.43h88v54.3H415V406.33h154.9Z" transform="translate(-37.09 -38.49)"/><path class="cls-1" d="M816.08,463c-11.14,0-20.29,3.71-27.14,11.42-6.58,7.72-10,17.72-10,30.3s3.43,22.57,10,30.28c6.85,7.73,16,11.44,27.14,11.44S836.37,542.68,843,535c6.85-7.71,10.28-17.72,10.28-30.28s-3.43-22.58-10.28-30.3C836.37,466.66,827.23,463,816.08,463Z" transform="translate(-37.09 -38.49)"/><path class="cls-1" d="M954.67,352.05H677.49a9.43,9.43,0,0,0-9.42,9.43V638.65a9.43,9.43,0,0,0,9.42,9.43H954.67a9.43,9.43,0,0,0,9.43-9.43V361.48A9.43,9.43,0,0,0,954.67,352.05Zm-110.51,6.19c11.61,0,21.33,8.95,21.33,20.56s-9.72,20.37-21.33,20.37c-12.19,0-21.51-8.76-21.51-20.37S832,358.24,844.16,358.24Zm-52.62,0c11.61,0,21.33,8.95,21.33,20.56s-9.72,20.37-21.33,20.37c-12.19,0-21.51-8.76-21.51-20.37S779.35,358.24,791.54,358.24ZM892.38,578.4c-19.14,18.57-44.57,27.71-76.3,27.71s-57.15-9.14-76.3-27.71-28.86-43.16-28.86-73.73,9.71-54.87,28.86-73.45,44.59-28,76.3-28,57.16,9.43,76.3,28,28.87,42.87,28.87,73.45S911.53,559.82,892.38,578.4Z" transform="translate(-37.09 -38.49)"/><path class="cls-3" d="M323.7,38.49H46.52a9.43,9.43,0,0,0-9.43,9.43V325.09a9.43,9.43,0,0,0,9.43,9.43H323.7a9.43,9.43,0,0,0,9.42-9.43V47.92A9.43,9.43,0,0,0,323.7,38.49ZM218.54,283.82H151.68V89.49h66.86Z" transform="translate(-37.09 -38.49)"/><path class="cls-2" d="M639.18,38.49H362a9.43,9.43,0,0,0-9.43,9.43V325.09a9.43,9.43,0,0,0,9.43,9.43H639.18a9.43,9.43,0,0,0,9.43-9.43V47.92A9.43,9.43,0,0,0,639.18,38.49Zm-36.3,109.12c-.23,10.12-1.13,18.54-3.43,26.78a77.2,77.2,0,0,1-14.75,27.89,171.52,171.52,0,0,1-16.62,17.47c-8.34,7.79-17,15.2-25.64,22.66-14.06,12.17-28,24.49-41.46,37.3-.27.25-.42.38-.77.05-14.28-13.6-29.08-26.63-44-39.52-8.75-7.56-17.53-15.08-25.88-23.08a148.71,148.71,0,0,1-15.57-17,75.65,75.65,0,0,1-13.63-27.88,95.76,95.76,0,0,1-2.38-14.68,113.81,113.81,0,0,1-.43-13.57c.77-23.32,15.73-42.94,38.23-48.91,17-4.52,32.78-1.46,47,9a64.1,64.1,0,0,1,16.58,18.33c.44.71.44.71.87,0a64.82,64.82,0,0,1,18.39-19.64,52,52,0,0,1,23.46-9.14c15.13-1.83,28.89,1.61,40.87,11.21A50.23,50.23,0,0,1,601.11,132,54.94,54.94,0,0,1,602.88,147.61Z" transform="translate(-37.09 -38.49)"/></svg>